<svg xmlns="http://www.w3.org/2000/svg" xmlns:xlink="http://www.w3.org/1999/xlink" width="558px" height="364px" viewBox="0 0 558 364"><title>super_dad</title><desc>Created with Sketch.</desc><defs><linearGradient x1="29.1810987%" y1="-6.72969442%" x2="70.6742483%" y2="97.5304472%" id="linearGradient-1"><stop stop-color="#000000" offset="1%"></stop><stop stop-color="#000000" stop-opacity="0.69" offset="13%"></stop><stop stop-color="#000000" stop-opacity="0" offset="100%"></stop></linearGradient><linearGradient x1="26.326242%" y1="255.025944%" x2="107.059001%" y2="-464.211695%" id="linearGradient-2"><stop stop-color="#000000" offset="1%"></stop><stop stop-color="#000000" stop-opacity="0.69" offset="8%"></stop><stop stop-color="#000000" stop-opacity="0.32" offset="21%"></stop><stop stop-color="#000000" stop-opacity="0" offset="100%"></stop></linearGradient><linearGradient x1="82.8175236%" y1="182.137963%" x2="14.283318%" y2="-79.8297445%" id="linearGradient-3"><stop stop-color="#FFFFFF" offset="1%"></stop><stop stop-color="#FFFFFF" stop-opacity="0" offset="100%"></stop></linearGradient><linearGradient x1="24.0944715%" y1="240.710943%" x2="109.277695%" y2="-451.980006%" id="linearGradient-4"><stop stop-color="#000000" offset="1%"></stop><stop stop-color="#000000" stop-opacity="0.69" offset="8%"></stop><stop stop-color="#000000" stop-opacity="0.32" offset="21%"></stop><stop stop-color="#000000" stop-opacity="0" offset="100%"></stop></linearGradient><linearGradient x1="34.5596725%" y1="-1.08405108%" x2="155.982996%" y2="400.712801%" id="linearGradient-5"><stop stop-color="#000000" offset="1%"></stop><stop stop-color="#000000" stop-opacity="0.69" offset="8%"></stop><stop stop-color="#000000" stop-opacity="0.32" offset="21%"></stop><stop stop-color="#000000" stop-opacity="0" offset="100%"></stop></linearGradient><linearGradient x1="34.8101266%" y1="15.9022556%" x2="102.996642%" y2="169.050752%" id="linearGradient-6"><stop stop-color="#000000" offset="1%"></stop><stop stop-color="#000000" stop-opacity="0.69" offset="8%"></stop><stop stop-color="#000000" stop-opacity="0.32" offset="21%"></stop><stop stop-color="#000000" stop-opacity="0" offset="100%"></stop></linearGradient><linearGradient x1="-75.3359264%" y1="45.6142245%" x2="472.807638%" y2="65.341029%" id="linearGradient-7"><stop stop-color="#000000" offset="1%"></stop><stop stop-color="#000000" stop-opacity="0.69" offset="8%"></stop><stop stop-color="#000000" stop-opacity="0.32" offset="21%"></stop><stop stop-color="#000000" stop-opacity="0" offset="100%"></stop></linearGradient></defs><g id="Page-1" stroke="none" stroke-width="1" fill="none" fill-rule="evenodd"><g id="super_dad"><path d="M185.850972,352.887868 C281.200574,368.594419 378.660858,366.120929 473.090972,345.597868 C485.190972,342.957868 497.550972,339.887868 507.730972,332.827868 C516.490972,326.757868 523.120972,318.077868 528.820972,309.077868 C550.160972,275.357868 559.980972,230.837868 541.430972,195.507868 C521.720972,157.977868 477.480972,141.817868 444.950972,114.627868 C419.950972,93.7678679 401.820972,66.1378679 382.170972,40.1978679 C374.110972,29.5378679 365.380972,18.8178679 353.510972,12.6678679 C343.740972,7.66786789 332.600972,6.06786789 321.700972,4.58786789 C276.850972,-1.50213211 226.280972,-6.12213211 190.930972,22.2178679 C146.230972,58.0778679 146.060972,131.437868 100.190972,165.797868 C91.3909719,172.387868 81.2809719,177.177868 72.9909719,184.397868 C43.0909719,210.417868 43.8509719,267.617868 66.6309719,298.017868 C93.1309719,333.377868 144.960972,346.117868 185.850972,352.887868 Z" id="Path" fill="#F37901" opacity="0.24"></path><path d="M167.29137,334.739743 C162.019809,335.490077 155.071936,339.374161 157.498177,344.14099 C158.920203,346.137608 161.12759,347.430631 163.563781,347.694043 C176.041342,350.836278 188.715721,353.136593 201.501373,354.579463 C224.66095,357.205633 248.041094,357.029084 271.333011,356.786329 L339.069258,356.212544 C365.537346,355.991857 392.380398,355.749102 418.605862,351.445714 C416.400188,340.411387 403.386711,335.77697 392.248058,334.563194 C364.677133,331.51772 336.48862,336.902471 309.314716,331.451514 C295.41897,328.648795 281.721735,323.021288 267.561308,324.146789 C252.342158,325.338497 241.732866,333.393555 226.271092,332.00323 C206.772934,330.259806 186.56896,331.937024 167.29137,334.739743 Z" id="Path" fill="#F37901" opacity="0.18"></path><g id="Group-2" transform="translate(441.000000, 237.000000)"><path d="M79.9528689,34.0128683 C79.9528781,43.3786444 72.4789184,50.9748064 63.2508249,50.9879977 L20.3531913,50.9879977 C14.2322575,51.2212625 8.47530519,48.0400862 5.34655937,42.695634 C2.21781354,37.3511818 2.21781354,30.6984635 5.34655937,25.3540112 C8.47530519,20.009559 14.2322575,16.8283827 20.3531913,17.0616476 L26.5251738,17.0616476 C26.5016986,16.599721 26.5016986,16.1368734 26.5251738,15.6749469 C26.9956599,7.54076175 33.5592059,1.14661807 41.586363,1.00248037 C49.6135201,0.858342666 56.395817,7.01284494 57.149514,15.1250483 L57.149514,15.5793123 C57.1729892,16.0412389 57.1729892,16.5040865 57.149514,16.966013 L63.2979393,16.966013 C67.729514,16.9596559 71.9813846,18.7435414 75.1149843,21.9238911 C78.248584,25.1042407 80.006247,29.4195447 79.9999833,33.9172338 L79.9528689,34.0128683 Z" id="Path" fill="#F37901" opacity="0.31"></path><path d="M75,32.2577034 C75.0000091,41.4950175 67.5972389,48.9869897 58.4570432,49 L15.9446773,49 C7.04351978,48.6622179 0,41.2715603 0,32.2694938 C0,23.2674273 7.04351978,15.8767696 15.9446773,15.5389876 L22.0578715,15.5389876 C22.03462,15.0833968 22.03462,14.6268977 22.0578715,14.171307 C22.6793135,6.17143205 29.2840623,0 37.2241931,0 C45.1643238,0 51.7690726,6.17143205 52.3905146,14.171307 C52.4137661,14.6268977 52.4137661,15.0833968 52.3905146,15.5389876 L58.5037088,15.5389876 C67.6165736,15.577893 74.9872462,23.0479467 75,32.2577034 Z" id="Path" fill="#FFFFFF"></path></g><path d="M279.88,102.46 C269.19,100.97 258.79,107.71 252.41,116.41 C246.03,125.11 242.74,135.61 238.72,145.62 C234.217247,156.852636 228.704651,167.653576 222.25,177.89 C218.11,184.46 213.5,190.97 211.71,198.52 C210.01,205.68 210.99,213.21 212.63,220.38 C214.82,229.91 218.24,239.32 224.16,247.1 C230.08,254.88 238.74,260.9 248.44,262.1 C259.13,263.47 269.61,259.1 280.19,256.98 C302.11,252.66 324.58,258.32 346.77,260.92 C357.88,262.22 369.32,262.73 380.11,259.74 C390.9,256.75 401.04,249.8 405.58,239.57 C410.03,229.57 408.58,218.03 409.58,207.11 C410.75,193.96 415.7,180.97 424.58,171.21 C431.58,163.54 440.7,158.08 447.75,150.47 C454.8,142.86 459.66,131.66 455.51,122.15 C437.62,124.55 419.24,126.93 401.71,122.68 C391.41,120.18 381.81,115.47 371.87,111.81 C361.353321,107.929184 350.44591,105.203169 339.34,103.68 C329.26,102.3 318.69,101.97 309.21,105.68 C304.12,107.68 298.38,106.33 292.98,105.5 C288.71,104.88 284.11,103.06 279.88,102.46 Z" id="Path" fill="#F37901"></path><path d="M284.365008,109.190732 C274.565008,107.820732 265.015008,114.010732 259.165008,121.990732 C253.315008,129.970732 250.285008,139.610732 246.605008,148.790732 C242.469417,159.10022 237.408752,169.014035 231.485008,178.410732 C227.685008,184.410732 223.485008,190.410732 221.815008,197.330732 C220.255008,203.900732 221.155008,210.810732 222.665008,217.390732 C224.665008,226.130732 227.815008,234.770732 233.245008,241.910732 C238.675008,249.050732 246.625008,254.580732 255.515008,255.710732 C265.335008,256.970732 274.945008,252.930732 284.655008,251.010732 C304.765008,247.010732 325.385008,252.240732 345.745008,254.630732 C355.945008,255.820732 366.445008,256.290732 376.345008,253.550732 C386.245008,250.810732 395.545008,244.420732 399.715008,235.030732 C403.795008,225.830732 402.495008,215.270732 403.385008,205.250732 C404.455008,193.180732 408.995008,181.250732 417.155008,172.310732 C423.565008,165.310732 431.935008,160.260732 438.415008,153.310732 C444.895008,146.360732 449.335008,136.010732 445.485008,127.310732 C429.075008,129.520732 412.215008,131.710732 396.125008,127.800732 C386.675008,125.510732 377.865008,121.190732 368.745008,117.800732 C359.093905,114.244571 349.085277,111.746605 338.895008,110.350732 C329.645008,109.080732 319.945008,108.780732 311.255008,112.200732 C306.585008,114.030732 301.315008,112.800732 296.355008,112.030732 C292.475008,111.410732 288.265008,109.740732 284.365008,109.190732 Z" id="Path" fill="url(#linearGradient-1)" opacity="0.501046317"></path><path d="M258.61,106.82 C253.54,107.9 249.54,111.68 245.83,115.29 L227.98,132.67 C226.07,134.53 224.1,136.48 223.25,139 C222.15,142.27 223.15,145.87 224.58,149 C226.09,152.29 228.32,155.54 231.72,156.77 C233.99,157.59 236.49,157.39 238.89,157.19 L264.03,165.5 L264.03,191.9 C263.966344,193.055455 264.321383,194.195129 265.03,195.11 C265.662133,195.631802 266.421212,195.976838 267.23,196.11 C278.579846,199.110084 290.426049,199.739839 302.03,197.96 C303.407122,197.858746 304.732484,197.392799 305.87,196.61 C307.21,195.5 307.68,193.68 308.04,191.98 C310.363104,180.98171 308.837262,173.712652 308.04,162.5 C309.487399,161.033042 312.300371,159.595695 313.77,160 C315.305833,160.422518 315.498144,162.717533 317,162.5 C325.74781,161.232945 334.253103,156.464616 337.09,156.27 C340.88,156.01 344.79,153.84 345.95,150.27 C347.11,146.7 345.36,142.89 343.48,139.65 C336.51,127.7 325.07,118.15 313.77,110.15 C312.71,106.83 309.65,110.04 306.26,109.22 C305.12,108.94 302.42,113.36 301.26,113.29 C289.04,104.9 273.11,103.75 258.61,106.82 Z" id="Path" fill="#F37901"></path><path d="M277.21,115.64 C277.181996,116.541874 277.276185,117.44339 277.49,118.32 C277.870604,119.431819 278.476577,120.453121 279.27,121.32 C279.668896,121.84937 280.156022,122.306051 280.71,122.67 C281.432304,123.055223 282.241592,123.248075 283.06,123.23 C285.838745,123.159836 288.492933,122.062534 290.51,120.15 C291.42754,119.438835 292.101864,118.46054 292.44,117.35 C292.599868,116.415437 292.538216,115.4564 292.26,114.55 C291.87,112.91 291.32,111.32 290.77,109.73 C290.680402,109.417548 290.530968,109.125472 290.33,108.87 C289.797578,108.420984 289.10033,108.21762 288.41,108.31 C285.85,108.31 283.293333,108.43 280.74,108.67 C279.763095,108.657113 278.790536,108.802321 277.86,109.1 C277.03,109.51 277.16,110.37 277.17,111.18 C277.17,112.69 277.19,114.15 277.21,115.64 Z" id="Path" fill="#F3BD8F"></path><g id="face" transform="translate(259.000000, 48.000000)"><path d="M17.2041493,53.4733735 C17.3390945,53.2788882 17.5483806,53.1964669 17.7487781,53.1407964 C19.7293199,52.5920443 21.7171341,53.7936596 23.7138369,54.2411926 C26.1549698,54.7884987 28.6809483,54.198536 31.1358181,54.6410081 C31.4315661,54.6945096 31.7580201,54.7892217 31.9212472,55.1022779 C32.0165976,55.2844723 32.0384151,55.5093233 32.0570003,55.7254984 C32.2509334,57.9111079 32.8060669,59.8870493 33,62.0733819 C30.9208756,63.6126352 28.2551036,64.8359403 25.8543735,64.983431 C22.559127,65.1858692 19.1200467,63.5265989 17.0449626,60.372901 C17.036074,59.7265448 17.0279935,59.0794655 17.0199129,58.4331093 C17.0029438,57.0709894 16.9859746,55.7088695 17.0182968,54.3474727 C17.0255693,54.0394774 17.0433465,53.7054544 17.2041493,53.4733735" id="Fill-43" fill="#DC9178"></path><path d="M26,65 C31.3810506,65 38.2726127,62.221505 42.1080299,54.2521937 C44.0686943,50.1782833 45,44.8909404 45,37.6288209 C45,16.160672 34.9517833,12 25.9996072,12 C17.047431,12 7,23.0390052 7,37.6288209 C7,46.3666113 7.86017087,52.9233367 10.4029851,56.7705363 C14.6567164,63.2063009 21.1325638,65 26,65 Z" id="Fill-44" fill="#F3BD8F"></path><path d="M8,43 C5.95139971,42.2178637 4.17787164,39.9785022 4.01076527,37.2988653 C3.84297122,34.6200917 5.66051085,31.8429036 7.79713425,32.0069278" id="Fill-45" fill="#F3BD8F"></path><path d="M43,43 C45.0486419,42.2178637 46.8222059,39.9785022 46.9893157,37.2988653 C47.1564254,34.6200917 45.3395366,31.8429036 43.2028699,32.0069278" id="Fill-46" fill="#F3BD8F"></path><path d="M35,35.5 C35,36.880586 35.6712775,38 36.4995932,38 C37.3279089,38 38,36.880586 38,35.5 C38,34.119414 37.3279089,33 36.4995932,33 C35.6712775,33 35,34.119414 35,35.5" id="Fill-47" fill="#2A282F"></path><path d="M16,35.5 C16,36.880586 16.6714596,38 17.5008139,38 C18.3285404,38 19,36.880586 19,35.5 C19,34.1186742 18.3285404,33 17.5008139,33 C16.6714596,33 16,34.1186742 16,35.5" id="Fill-48" fill="#2A282F"></path><path d="M32.4555492,33.7842572 C33.4617163,32.9513952 34.8247116,32.7399764 36.0141386,32.7581285 C37.1383674,32.7762806 38.5559883,32.9962416 39.4537854,33.9059831 C39.7603932,34.2167047 40.204446,33.6838866 39.895195,33.3710295 C38.8881468,32.3502397 37.4229489,32.0480602 36.1489404,32.0053494 C34.815901,31.9594352 33.2687649,32.1986161 32.1401308,33.1307808 C31.8106154,33.4041304 32.1225096,34.0597423 32.4555492,33.7842572" id="Fill-49" fill="#2A282F"></path><path d="M20.8594554,33.1307808 C19.7316928,32.1986161 18.1845435,31.9594352 16.8506118,32.0053494 C15.5765925,32.0480602 14.1113822,32.3502397 13.1043254,33.3710295 C12.7959528,33.6838866 13.2400093,34.2167047 13.5457387,33.9059831 C14.4444246,32.9962416 15.8620574,32.7762806 16.9862957,32.7581285 C18.1757329,32.7399764 19.5378586,32.9524629 20.5449154,33.7842572 C20.8770767,34.0597423 21.1898546,33.4041304 20.8594554,33.1307808" id="Fill-50" fill="#2A282F"></path><path d="M27.6131917,14.44383 C27.0491394,14.1948971 26.4938061,13.9910413 25.9458504,13.827553 C15.1812375,11.6739475 10.4354182,22.6505403 7.80831607,32.0319445 C7.96391671,30.4179178 8.2462782,28.6081087 8.65674195,26.7404396 C7.89014054,29.3286684 7.47565265,32.0871134 7.47296988,34.8186467 C7.47028711,37.1949462 7.65338613,41.5741459 8.08598272,45 C6.19127672,38.6885433 4.21541693,36.5261915 4.10274061,25.3329599 L3.47899668,28.0766035 C2.12151528,17.1921831 3.39985498,13.2375149 10.562179,7.23554222 C15.5628615,3.04741535 19.5273242,1.65473701 23.3952073,1.35870877 C19.8707187,1.03105932 14.3790894,3.1220952 8.5547967,8.2144538 C13.4602409,3.08980121 17.8177293,-0.342780852 25.8157361,0.0272544542 C31.6608203,0.296371041 32.7091125,2.2151723 34.3690762,5.35374449 C45.4489145,3.51500541 48.0927839,10.1393102 47.9975456,18.4381929 C47.2631374,14.7055459 46.540131,11.9740125 44.7963308,10.7602967 C48.2403362,16.3014072 48.0585786,20.7795072 46.435503,27.2921286 C46.3798355,26.0656298 46.357032,24.9165019 46.357032,23.6886575 C45.4126971,30.323727 43.6226191,36.3653943 43.1551465,42.806027 L42.6085322,42.1789854 C41.760777,33.504685 44.2785563,33.1568518 40.1880034,24.7846348 C40.6648657,17.0293676 37.8211299,13.5530541 27.6131917,14.44383" id="Fill-29" fill="#80613C"></path><path d="M26.551592,33.3670432 C26.8903735,35.9976863 27.2299485,38.6291013 27.5687301,41.2597443 C27.7361374,42.5596278 27.9027513,43.8595113 28.0701586,45.1586229 C28.0979276,45.370896 28.2740623,45.9174029 28.1931355,46.1096065 C28.1074484,46.3087573 28.2558141,46.1729025 28.0336622,46.2300233 C27.8924371,46.2663027 27.6925004,46.2199886 27.5425479,46.2153572 C26.8221412,46.1945158 26.1025278,46.1744463 25.3829145,46.153605 C24.8719652,46.1389388 24.8727586,46.9108411 25.3829145,46.9255073 C26.16838,46.9478925 26.9530521,46.9702776 27.7385176,46.9934347 C28.2256649,47.0073289 28.8048465,47.0482398 28.9674934,46.4893825 C29.0468334,46.2184448 28.9603528,45.9042805 28.9254433,45.6341147 C28.8802195,45.2859868 28.8349957,44.9370869 28.7905654,44.5881871 C28.6929772,43.8270914 28.5945957,43.0667676 28.4970075,42.305672 C28.1130022,39.326129 27.7289968,36.3465861 27.3449915,33.3670432 C27.2823129,32.8807447 26.48812,32.8745695 26.551592,33.3670432" id="Fill-52" fill="#D39765"></path><path d="M30.0805242,30.0843908 C29.920351,30.2688157 30.0849005,30.614359 30.3063421,30.6700918 C30.5269085,30.723798 30.7465995,30.5971325 30.9505359,30.482627 C33.4187781,29.0832271 36.4489394,29.0943737 38.9101795,30.511 C39.287418,30.7288646 39.6707833,30.9821955 40.0917849,30.999422 C40.5136617,31.0156351 40.9828028,30.689345 40.9994328,30.2019363 C41.0073102,29.9921784 40.9320375,29.790527 40.8418854,29.6081287 C40.4593954,28.8390162 39.7985717,28.3080346 39.1097395,27.9179051 C36.886571,26.6583439 34.1487476,26.6978635 31.9527122,28.0192374 C31.1317153,28.5147526 30.3553569,29.2220525 30,30.2120696" id="Fill-53" fill="#80613C"></path><path d="M22.9194813,31.0843908 C23.0796434,31.2688157 22.9142301,31.614359 22.693679,31.6700918 C22.473128,31.723798 22.2525769,31.5971325 22.0504051,31.482627 C19.5814582,30.0832271 16.5515064,30.0943737 14.0913115,31.511 C13.713224,31.7288646 13.3307604,31.9821955 12.9089127,31.999422 C12.487065,32.0156351 12.0179563,31.689345 12.0004522,31.2019363 C11.9934506,30.9921784 12.0687181,30.790527 12.1588639,30.6081287 C12.5413275,29.8390162 13.2021056,29.3080346 13.8908901,28.9179051 C16.113905,27.6583439 18.8515391,27.6978635 21.0465475,29.0192374 C21.8683629,29.5147526 22.6455429,30.2220525 23,31.2120696" id="Fill-54" fill="#80613C"></path><path d="M42.5572142,33.4995256 L42.1144285,33.4995256 C42.1144285,35.3098868 41.4307673,36.944715 40.3229173,38.1316971 C39.2150674,39.3186792 37.6892277,40.0502246 35.9995572,40.0511734 C34.3107723,40.0502246 32.7849326,39.3186792 31.6770827,38.1316971 C30.5692327,36.944715 29.8855715,35.3098868 29.8855715,33.4995256 C29.8855715,31.6891644 30.5692327,30.0543361 31.6770827,28.867354 C32.7849326,27.6813208 34.3107723,26.9488266 35.9995572,26.9488266 C37.6892277,26.9488266 39.2150674,27.6813208 40.3229173,28.867354 C41.4307673,30.0543361 42.1144285,31.6891644 42.1144285,33.4995256 L43,33.4995256 C42.9991144,29.3578974 39.8659624,26 35.9995572,26 C32.1340376,26 29.0008856,29.3578974 29,33.4995256 C29.0008856,37.6421026 32.1340376,40.9990512 35.9995572,41 C39.8659624,40.9990512 42.9991144,37.6421026 43,33.4995256 L42.5572142,33.4995256" id="Fill-55" fill="#2A282F"></path><path d="M24.5580719,33.4995256 L24.1152581,33.4995256 C24.1143725,35.3098868 23.4315536,36.944715 22.3236336,38.1316971 C21.2157136,39.3186792 19.6897773,40.0502246 18,40.0511734 C16.3102227,40.0502246 14.7842864,39.3186792 13.6763664,38.1316971 C12.569332,36.944715 11.8856275,35.3098868 11.8856275,33.4995256 C11.8856275,31.6891644 12.569332,30.0543361 13.6763664,28.867354 C14.7842864,27.6813208 16.3102227,26.9488266 18,26.9488266 C19.6897773,26.9488266 21.2157136,27.6813208 22.3236336,28.867354 C23.4315536,30.0543361 24.1143725,31.6891644 24.1152581,33.4995256 L25,33.4995256 C25,29.3578974 21.8666498,26 18,26 C14.1342358,26 11,29.3578974 11,33.4995256 C11,37.6421026 14.1342358,40.9990512 18,41 C21.8666498,40.9990512 25,37.6421026 25,33.4995256 L24.5580719,33.4995256" id="Fill-56" fill="#2A282F"></path><path d="M23.8363298,30.6556398 C25.6017361,29.1119 29.6452277,29.2152755 31.1815087,30.8646879 C31.4720852,31.1776857 32.2261797,30.891106 31.9338474,30.5775339 C30.0314926,28.5341463 25.2339066,28.4882016 23.0839911,30.3679115 C22.7486429,30.6619572 23.5036153,30.9462396 23.8363298,30.6556398" id="Fill-57-Copy-2" fill="#2A282F" transform="translate(27.500000, 30.000000) scale(1, -1) translate(-27.500000, -30.000000) "></path><path d="M45.5485777,31.128167 L45.505528,31.1784515 L45.3879291,31.3058391 C45.2908049,31.4072464 45.1921057,31.5036251 45.0923566,31.5983278 C44.8608336,31.8187418 44.6245856,32.0282609 44.3867627,32.2327515 C44.1505147,32.435566 43.9126918,32.6325139 43.6722438,32.8219192 C43.5709197,32.9023745 43.4690706,32.9811537 43.3661715,33.0565806 L43.2417476,33.1454166 C43.194498,33.1797778 43.2926721,33.1152459 43.2433225,33.1445786 L43.191348,33.1781016 C43.0600991,33.2585569 42.9692749,33.457181 43.0096996,33.6893282 C43.0438243,33.8896284 43.1976479,34.060596 43.3299468,33.9793026 C43.7851179,33.6993851 44.2203391,33.3188984 44.6497854,32.9509829 C45.0839567,32.5772009 45.5412277,32.2067712 45.9244744,31.7064396 C46.0331485,31.5639666 46.0168736,31.2656115 45.9244744,31.11811 C45.8163254,30.9463044 45.6651267,30.9756371 45.5559276,31.11811 C45.5018531,31.1885084 45.5895273,31.0829108 45.5485777,31.128167 Z" id="Fill-58" fill="#2A282F"></path><path d="M7.16481454,31.8113265 C8.27490448,32.5237495 9.38499443,33.2352875 10.4944042,33.9468255 C10.6576527,34.0512552 10.8596727,34.0034654 10.9562615,33.789296 C11.0433273,33.5954815 10.9991142,33.2936974 10.8351855,33.1883827 C9.72509552,32.4768447 8.61500557,31.7653067 7.50559582,31.0537687 C7.3423473,30.948454 7.14032726,30.9962438 7.04373855,31.2112982 C6.95667267,31.4042277 7.00088581,31.7060118 7.16481454,31.8113265" id="Fill-59" fill="#2A282F"></path><path d="M19.0608484,52.2784056 C21.5872141,56.8365282 23.875,55.9257492 27.3958333,55.9257492 C28.93178,55.9257492 31.4893352,53.7442065 32,52.0465473 C27.7090295,54.7656123 23.2385946,54.9728796 19,52" id="Fill-60" fill="#DA6C5E"></path><path d="M18.4065866,51.5326294 C21.2842723,53.9708029 24.7564428,54.7322514 29.3828455,53.2276215 C30.4304968,52.8872771 31.4765691,52.2229325 32,51.115371 C27.6025489,52.8891999 22.3445553,52.939194 18,51 L18.4065866,51.5326294" id="Fill-61" fill="#FFFFFE"></path><path d="M10.6372067,55.5242032 L15.6676164,54.9972054 C15.6359112,52.9946137 15.6547629,51.6545336 15.7747288,50.7228767 L15.8518497,50.7445213 C15.9118327,50.7868693 15.9726725,50.8292173 16.0335123,50.8790939 L15.8809843,50.8790939 C16.0866401,50.9995506 16.290582,51.1275357 16.4919533,51.2611673 C17.4602493,52.1354191 18.4653918,53.3766871 19.2811597,54.0166131 C20.2366022,54.7647618 21.5282535,58.2976507 22.372299,58.4463394 C23.0278268,58.5602085 22.372299,55.6172642 25.4448346,55.4865605 C28.6889436,55.3485582 28.2075764,58.55268 28.8245437,58.4463394 C29.4509369,58.3362345 30.1097931,55.0508463 30.7970261,54.5643144 C32.0001124,53.708884 33.5245358,51.7072333 34.9452744,50.7445213 L34.9615555,50.740757 C35.0798076,51.6752371 35.0969456,53.0077887 35.0652403,54.9972054 L41.7753687,53.4278707 C43.5380101,49.8442855 44.7091881,45.5773768 43.5129571,49.4950409 C42.6834788,52.2081386 41.8904413,55.2597633 40.4551353,56.6751288 C35.3445894,61.7164276 33.9598405,64.9141751 30.0600929,65.6585595 C28.2948809,65.9954617 22.7661682,66.0208705 20.9264059,65.7507841 C16.724173,65.1315617 15.5553627,61.8688805 10.2785783,56.6751288 C8.84155857,55.2597633 9.23312793,53.4359744 8.40536344,50.7228767 C7.20827546,46.8052126 8.87542221,51.9406181 10.6372067,55.5242032 Z" id="Path" fill="#80613C" opacity="0.359654018"></path><path d="M16,52 C16.2389028,51.9910846 16.4676034,51.9723623 16.6861017,51.9465076 L16.8518883,51.9830607 C19.5112762,51.7414535 20.8384195,50.723315 22.907777,50.3711568 C24.1141937,50.1687773 24.6336585,50.1562957 25.5365581,50.9399592 C26.5151244,50.0938879 27.1850725,50.1340072 28.4824593,50.4362392 C30.3741274,50.8748768 31.6970199,51.763742 34.212726,51.9839523 L34.3870145,51.9465076 C34.5834079,51.9705792 34.7883032,51.98841 35,51.9964338 C34.5834079,48.0269449 33.1618937,50.8376899 29.1183999,47.7431553 C27.1417129,46.2302122 28.7791749,47.447164 25.5365581,47.7431553 C22.5132898,47.4658864 23.925652,46.3577024 22.1470588,47.7431553 C17.9819881,50.9892516 16,48.0269449 16,52 Z" id="Path" fill="#80613C" opacity="0.36"></path></g><path d="M262.17,192.61 C262.17,192.61 251.78,261.08 251.78,262.02 C251.78,262.96 235.51,332.79 235.51,332.79 L248.35,333.41 L277.78,246.68 L284.05,230.4 L297.51,264.53 L314.73,336.23 L329.73,336.23 C329.73,336.23 318.73,260.14 317.21,258.23 C315.69,256.32 313.51,200.65 306.88,194.08 C300.25,187.51 261.21,189.39 261.21,189.39 L262.17,192.61 Z" id="Path" fill="#473F47"></path><g id="Group-3" transform="translate(264.000000, 151.000000)"><ellipse id="Oval" fill="#D8D8D8" cx="26.5" cy="2" rx="1.5" ry="1"></ellipse><rect id="Rectangle" fill="#979797" transform="translate(15.561231, 3.241712) rotate(-4.000000) translate(-15.561231, -3.241712) " x="12.0612306" y="2.24171171" width="7" height="2" rx="1"></rect><rect id="Rectangle-Copy" fill="#979797" transform="translate(31.526352, 2.742930) rotate(2.000000) translate(-31.526352, -2.742930) " x="28.0263524" y="2.24292968" width="7" height="1" rx="0.5"></rect><ellipse id="Oval-Copy" fill="#D8D8D8" cx="22.5" cy="2" rx="1.5" ry="1"></ellipse><path d="M3.04910305,5.41756127 C3.04910305,5.41756127 33.0098975,-0.582324901 43.0617007,3.31750858 C53.1135039,7.21780473 41.1096795,15.7174893 38.08434,15.7174893 C35.0594521,15.7174893 35.2676135,9.4742394 32.1379676,8.79596726 C29.0083217,8.11723245 18.2737852,7.01746923 16.1262457,11.4174474 C13.9796093,15.8174257 15.5410457,18.5166342 10.9538183,17.9170157 C6.36749403,17.3169345 1,13.6822102 1,9.99983091 C1,6.31745167 3.04910305,5.41756127 3.04910305,5.41756127" id="Fill-39" fill="#1E1D2C" transform="translate(24.000000, 10.000000) rotate(4.000000) translate(-24.000000, -10.000000) "></path></g><path d="M271.33751,149.088467 C272.136078,148.92393 272.964968,148.989825 273.72751,149.278467 C274.653896,149.856927 275.358439,150.730559 275.72751,151.758467 C276.16751,152.678467 276.53751,153.918467 275.72751,154.588467 C275.93751,155.388467 276.49751,156.068467 276.72751,156.868467 C276.95751,157.668467 276.54751,158.758467 275.72751,158.788467 C276.109742,159.279352 276.329903,159.876931 276.35751,160.498467 C276.371583,161.12403 275.960023,161.679635 275.35751,161.848467 C275.44751,162.278467 275.42751,162.848467 275.00751,162.968467 C274.882635,162.998599 274.752385,162.998599 274.62751,162.968467 C273.163593,162.477284 271.674874,162.06338 270.16751,161.728467 C268.616381,161.403444 267.018191,162.013022 266.07751,163.288467 C265.55751,164.178467 265.44751,165.458467 264.49751,165.868467 C263.826911,166.062342 263.106594,165.979506 262.49751,165.638467 C261.099547,165.493442 260.044449,164.303743 260.06751,162.898467 C259.977497,161.636737 259.977497,160.370197 260.06751,159.108467 C260.24751,156.748467 260.97751,153.938467 263.06751,152.508467 C265.519787,150.739204 268.351879,149.568012 271.33751,149.088467 Z" id="Path" fill="#F3BD8F"></path><path d="M305.320083,150.01039 C304.502965,149.953086 303.686742,150.133698 302.970083,150.53039 C302.124284,151.226776 301.539186,152.189017 301.310083,153.26039 C301.000083,154.26039 300.800083,155.52039 301.660083,156.08039 C301.560083,156.90039 301.100083,157.65039 301.010083,158.47039 C300.920083,159.29039 301.440083,160.31039 302.270083,160.23039 C301.958671,160.768935 301.822382,161.390972 301.880083,162.01039 C301.959717,162.644684 302.464559,163.141251 303.100083,163.21039 C303.100083,163.64039 303.170083,164.21039 303.600083,164.27039 C303.727385,164.267523 303.852968,164.24037 303.970083,164.19039 C305.352458,163.497761 306.771186,162.880198 308.220083,162.34039 C309.716655,161.812811 311.383398,162.203149 312.490083,163.34039 C313.130083,164.15039 313.410083,165.40039 314.410083,165.68039 C315.084366,165.767556 315.766048,165.588166 316.310083,165.18039 C317.208935,164.821288 317.928344,164.119864 318.310083,163.23039 C318.390128,162.86609 318.410392,162.491196 318.370083,162.12039 C318.287302,160.859496 318.113516,159.606233 317.850083,158.37039 C317.350083,156.06039 316.240083,153.37039 314.020083,152.25039 C311.335971,150.83154 308.355654,150.064194 305.320083,150.01039 Z" id="Path" fill="#F3BD8F" transform="translate(309.695115, 157.850969) rotate(-26.000000) translate(-309.695115, -157.850969) "></path><path d="M220.51,340.74 C219.803661,341.137743 219.243024,341.75094 218.91,342.49 C218.684454,343.45228 219.049401,344.456866 219.84,345.05 C220.624639,345.608941 221.541469,345.953614 222.5,346.05 C226.82,346.72 231.18,345.44 235.5,344.61 C238.848892,343.972169 242.242609,343.59769 245.65,343.49 C246.68762,343.607008 247.726373,343.280128 248.51,342.59 C248.909716,341.972732 249.102366,341.244164 249.06,340.51 C249.15,338.6 249.17,336.68 249.14,334.77 C249.292334,334.0671 249.055526,333.336533 248.519806,332.85666 C247.984086,332.376787 247.231959,332.221513 246.55,332.45 C242.41,332.45 237.55,331.71 233.5,332.99 C231.63,333.59 220.51,339.01 220.51,340.74 Z" id="Path" fill="#473F47"></path><path d="M342.96,342.46 C343.664205,342.861998 344.221355,343.478717 344.55,344.22 C344.778849,345.177385 344.417389,346.179258 343.63,346.77 C342.845361,347.328941 341.928531,347.673614 340.97,347.77 C336.64,348.44 332.29,347.16 327.97,346.34 C324.62596,345.692339 321.234777,345.31777 317.83,345.22 C316.790413,345.339465 315.749409,345.008236 314.97,344.31 C314.569639,343.693018 314.376931,342.964235 314.42,342.23 C314.33,340.32 314.3,338.4 314.34,336.49 C314.286461,335.903176 314.430787,335.31531 314.75,334.82 C315.346152,334.294067 316.143169,334.056424 316.93,334.17 C321.07,334.17 325.93,333.44 329.93,334.71 C331.85,335.32 342.96,340.73 342.96,342.46 Z" id="Path" fill="#473F47"></path><g id="mail" transform="translate(70.000000, 231.000000)"><path d="M69.06,15.35 L69.06,49.22 C69.06,50.9545158 68.3709663,52.6179904 67.1444783,53.8444783 C65.9179904,55.0709663 64.2545158,55.76 62.52,55.76 L7.52,55.76 C3.91034116,55.7544933 0.985506736,52.8296588 0.98,49.22 L0.98,15.35 C0.984293086,14.9850006 1.01436796,14.6207604 1.07,14.26 L39.99,40.44 L68.87,13.94 C68.9843419,14.401707 69.048051,14.8744954 69.06,15.35 Z" id="Path" fill="#F37901" opacity="0.21656436"></path><path d="M68.19,10.19 L39.31,36.69 L0.36,10.55 C0.900117822,7.4089112 3.62281322,5.11256035 6.81,5.11 L61.81,5.11 C64.8626409,5.10391353 67.5121595,7.21356159 68.19,10.19 Z" id="Path" fill="#F37901" opacity="0.21656436"></path><path d="M71.06,10.35 L71.06,44.22 C71.06,45.9545158 70.3709663,47.6179904 69.1444783,48.8444783 C67.9179904,50.0709663 66.2545158,50.76 64.52,50.76 L9.52,50.76 C5.91034116,50.7544933 2.98550674,47.8296588 2.98,44.22 L2.98,10.35 C2.98429309,9.98500056 3.01436796,9.62076045 3.07,9.26 L41.99,35.44 L70.87,8.94 C70.9843419,9.401707 71.048051,9.87449538 71.06,10.35 Z" id="Path" fill="#FFFFFF"></path><path d="M70.19,5.19 L41.31,31.69 L2.36,5.55 C2.90011782,2.4089112 5.62281322,0.11256035 8.81,0.11 L63.81,0.11 C66.8626409,0.103913527 69.5121595,2.21356159 70.19,5.19 Z" id="Path" fill="#FFFFFF"></path></g><g id="money" transform="translate(154.153927, 174.980989) rotate(-62.000000) translate(-154.153927, -174.980989) translate(124.153927, 141.980989)"><path d="M27.0007406,5.66588235 C39.7827697,14.1078775 48.2547519,27.749544 60,37.6109897 L49.6321896,66 L42.8338682,58.5292078 C37.0130832,52.1939761 31.1182424,45.7989779 24.0533202,40.8981383 C16.9883979,35.9972986 8.54603802,32.7549748 0,33.322755 C0,33.322755 4.32485806,6.98074178 6.47247593,4.3809061 C12.767218,-3.25424351 18.9434707,0.346678319 27.0007406,5.66588235 Z" id="Path" fill="#F37901"></path><path d="M10.1832644,7.090938 L8,23.2158983 C11.0226911,23.8880524 13.2613377,26.4396958 13.5329303,29.5224165 C13.5329303,29.5224165 35.2160356,36.6807631 43.2313077,52.0435612 C43.2313077,52.0435612 48.6745148,50.5491256 50.7082405,53 L55,42.5389507 C55,42.5389507 52.1438116,38.9224165 52.9064588,35.963434 C52.9064588,35.963434 32.1804009,8.34626391 19.2004454,6 C16.3595142,7.21255666 13.2316569,7.59097852 10.1832644,7.090938 Z" id="Path" fill="#FFFFFF"></path><g id="Group" opacity="0.982047991" transform="translate(27.000000, 18.000000)" fill="#F37901" fill-rule="nonzero"><path d="M3.99,18.2692308 L4.395,16.3546154 C2.17329986,15.9416095 0.64338821,13.9434597 0.87,11.7507692 L2.775,12.1307692 C2.73162958,13.3610666 3.51627336,14.4752577 4.71,14.8784615 L5.805,9.77769231 C3.105,8.31615385 2.205,7.07384615 2.625,5.10076923 C2.85352234,4.09031669 3.48898325,3.21163179 4.3886994,2.66201015 C5.28841556,2.11238851 6.37699018,1.93788879 7.41,2.17769231 L7.71,0.716153846 L8.955,0.964615385 L8.64,2.42615385 C10.6560553,2.81478989 12.0430201,4.62718362 11.85,6.62076923 L9.99,6.24076923 C10.0062783,5.18742103 9.33903262,4.23857274 8.325,3.87307692 L7.35,8.47692308 C10.455,10.07 11.13,11.6192308 10.725,13.49 C10.23,15.8284615 8.34,16.8807692 5.625,16.53 L5.22,18.4446154 L3.99,18.2692308 Z M6.195,7.93615385 L7.11,3.65384615 C6.54732599,3.51533903 5.95086444,3.6116038 5.4640764,3.91948683 C4.97728837,4.22736986 4.6442269,4.71900855 4.545,5.27615385 C4.275,6.31384615 4.68,7.05923077 6.195,7.93615385 Z M6.96,10.3769231 L5.94,15.1415385 C6.56182911,15.3223969 7.23374257,15.2290942 7.77896137,14.8861781 C8.32418018,14.5432621 8.68810938,13.9850702 8.775,13.3584615 C8.955,12.2330769 8.625,11.3561538 6.96,10.3769231 Z" id="Shape"></path></g></g><g id="Group" transform="translate(468.486205, 138.000000)"><rect id="Rectangle" fill="#F37901" x="0.35" y="0.81" width="88.58" height="88.58"></rect><circle id="Oval" stroke="#FFFFFF" stroke-width="2.97" cx="44.21" cy="47.14" r="29.72"></circle><path d="M44.21,17.42 L44.21,25.51" id="Path" stroke="#FFFFFF" stroke-width="2.97"></path><path d="M44.21,68.76 L44.21,76.85" id="Path" stroke="#FFFFFF" stroke-width="2.97"></path><path d="M73.92,47.14 L65.83,47.14" id="Path" stroke="#FFFFFF" stroke-width="2.97"></path><path d="M22.58,47.14 L14.49,47.14" id="Path" stroke="#FFFFFF" stroke-width="2.97"></path><polyline id="Path" stroke="#FFFFFF" stroke-width="2.97" points="44.21 33.05 44.21 48.95 60.95 56.49"></polyline></g><g id="pie-chart" transform="translate(0.000000, 8.000000)"><path d="M135.88643,98.9557681 C97.1030339,108.346645 62.7796337,104.247781 59.2404356,89.7982519 C58.9941317,88.8045879 55.9513308,76.6020941 56.0005916,75.5557359 C56.0005916,75.5256248 57.6640905,75.5557359 57.6754583,75.5068054 C58.5128917,61.5239971 87.0273084,55.3888752 123.059679,46.6529134 C154.70405,38.9971846 181.850533,29.8848349 193.260089,38.4740055 C195.836807,40.408639 199.050126,53.1531314 199.701884,55.8179574 C203.25245,70.2750144 174.677405,89.5724191 135.88643,98.9557681 Z" id="Path" fill="#F37901"></path><path d="M136.024213,99.9657445 C97.3241651,109.338048 63.0745277,105.247291 59.5429356,90.82634 C59.2971609,89.8346413 56,76.1123869 56,76.1123869 C56.8356337,62.1534772 87.2700929,56.4850179 123.225028,47.766334 C154.801394,40.1257467 184.407782,34.8329308 195.796599,43.4051138 C195.796599,43.4051138 199.052167,54.2574524 199.702525,56.9282772 C203.24546,71.3417154 174.731824,90.6009539 136.024213,99.9657445 Z" id="Path" fill="url(#linearGradient-2)"></path><path d="M131.775201,87.8727267 C92.9264706,97.3704164 59.2778147,93.3054052 55.7212675,78.7207529 C55.470753,77.7177968 54.992498,75.8828432 55.0000893,75.8524506 C55.8427291,61.7350846 82.8337717,43.8984233 118.926842,35.0807682 C150.624521,27.357247 179.3388,28.6945217 190.767577,37.3602138 C193.348635,39.3091397 195.049098,41.6417723 195.701954,44.331518 C199.254705,58.9047731 170.635318,78.4054296 131.775201,87.8727267 Z" id="Path" fill="#F37901"></path><path d="M191,37.2974704 L127.910174,56.4044298 L56.641617,78 C56.4642288,76.9947669 56.0113227,76.4676783 56,75.4398557 C56,75.4097363 56,75.469975 56,75.4398557 C56.641617,64.8001971 72.1876206,51.8601736 95.527384,42.6323593 C103.354888,39.5500715 111.386714,37.0114801 119.565378,35.0347546 C151.083872,27.3806761 179.63583,28.7059273 191,37.2974704 Z" id="Path" fill="url(#linearGradient-3)"></path><path d="M97.8916543,92.9425632 L127,57 L56,78.6319236 C56,78.6319236 56.3985384,94.0552777 97.8916543,92.9425632 Z" id="Path" fill="url(#linearGradient-4)"></path><path d="M127,49.9411391 L55.2831129,72 C55.108514,70.9751763 55.0166179,69.93766 55.0083355,68.8977345 C54.9972215,68.8722432 54.9972215,68.8431919 55.0083355,68.8177006 C55.6444639,58.0474275 71.4272229,45.3449079 94.7042517,36 L127,49.9411391 Z" id="Path" fill="#F37901"></path><polygon id="Path" fill="#F37901" points="127 56.3818245 126.996221 50 55 72"></polygon><polygon id="Path" fill="url(#linearGradient-5)" points="127 57.2332937 126.996221 51 55 72.4879715 55 76"></polygon><polygon id="Path" fill="url(#linearGradient-6)" points="98 93 98 86.5225564 127.996125 53 128 57.1766917"></polygon><path d="M127,52 L55,75.236729 C55,75.236729 66.7146906,88.4265687 97.7472839,85.603943 L127,52 Z" id="Path" fill="#F37901"></path><path d="M98,86.6116603 L98,105.990647 C98,105.990647 65.6169554,106.803078 59.2802334,93.2843771 L55,76 C55,76 69.0837164,92.9724959 98,86.6116603 Z" id="Path" fill="#F37901"></path><path d="M98,86.6116603 L98,105.990647 C98,105.990647 65.6169554,106.803078 59.2802334,93.2843771 L55,76 C55,76 69.0837164,92.9724959 98,86.6116603 Z" id="Path" fill="url(#linearGradient-7)"></path><polygon id="Path" fill="#F37901" points="87.1398931 54 68.259038 26.2442287 28 24.0018942 28.0603584 23 68.8324426 25.275364 68.9757938 25.4808808 88 53.4458388"></polygon><path d="M24.5000644,27 C22.6796661,26.9999994 21.0385876,25.9032149 20.342306,24.2212392 C19.6460244,22.5392634 20.031715,20.6034643 21.3194733,19.3167908 C22.6072316,18.0301173 24.5433549,17.6460583 26.224743,18.3437573 C27.9061312,19.0414563 29.001532,20.6834588 28.9999984,22.5038566 C28.9958193,24.9867548 26.982965,26.9979135 24.5000644,27 Z M24.5000644,19.0388691 C22.5868986,19.0388703 21.0357765,20.5894284 21.0350796,22.5025943 C21.0343826,24.4157601 22.5843745,25.967448 24.4975398,25.9688431 C26.4107051,25.9702382 27.9629583,24.4208124 27.9650515,22.5076476 C27.9660575,21.5876702 27.6015624,20.7049731 26.9517511,20.0537399 C26.3019399,19.4025066 25.4200417,19.036083 24.5000644,19.0350781 L24.5000644,19.0388691 Z" id="Shape" fill="#F37901" fill-rule="nonzero"></path><polygon id="Path" fill="#F37901" points="131.860107 36 131 35.4458388 150.167557 7.27169409 150.42408 7.25701432 190.943414 5 191 6.00189416 150.740962 8.24422872"></polygon><path d="M193.5,9 C191.014719,9 189,6.98528137 189,4.5 C189,2.01471863 191.014719,0 193.5,0 C195.985281,0 198,2.01471863 198,4.5 C197.99791,6.984415 195.984415,8.99790962 193.5,9 Z M193.5,1.03875316 C191.586312,1.03875316 190.034962,2.59010347 190.034962,4.50379107 C190.034962,6.41747867 191.586312,7.96882898 193.5,7.96882898 C195.413688,7.96882898 196.965038,6.41747867 196.965038,4.50379107 C196.965039,2.58948925 195.414301,1.03705422 193.5,1.03496209 L193.5,1.03875316 Z" id="Shape" fill="#F37901" fill-rule="nonzero"></path><path d="M244.500064,97 C242.679666,96.9999994 241.038588,95.9032149 240.342306,94.2212392 C239.646024,92.5392634 240.031715,90.6034643 241.319473,89.3167908 C242.607232,88.0301173 244.543355,87.6460583 246.224743,88.3437573 C247.906131,89.0414563 249.001532,90.6834588 248.999998,92.5038566 C248.995819,94.9867548 246.982965,96.9979135 244.500064,97 Z M244.500064,89.0388691 C242.586405,89.0388691 241.035077,90.5901969 241.035077,92.5038566 C241.035077,94.4175163 242.586405,95.968844 244.500064,95.968844 C246.413724,95.968844 247.965051,94.4175163 247.965051,92.5038566 C247.962962,90.591063 246.412858,89.0409585 244.500064,89.0388691 Z" id="Shape" fill="#F37901" fill-rule="nonzero"></path><polygon id="Path" fill="#F37901" points="240 93 200.314997 93 200.190403 92.917934 161 67.8542324 161.56256 67 200.620818 91.9816356 240 91.9816356"></polygon><path d="M4.49620894,104 C2.01142214,103.997907 -0.00139453734,101.982262 7.24946926e-07,99.497474 C0.00139598724,97.0126862 2.01647506,94.999303 4.50126263,95.0000002 C6.98605021,95.0006974 8.99999912,97.0152111 9,99.4999992 C8.9979075,101.985894 6.9821043,104.000001 4.49620894,104 Z M4.49620894,96.0387518 C2.58252135,96.0387518 1.03117103,97.5901023 1.03117103,99.5037903 C1.03117103,101.417478 2.58252135,102.968829 4.49620894,102.968829 C6.40989653,102.968829 7.96124684,101.417478 7.96124684,99.5037903 C7.96124799,97.5894881 6.41050961,96.0370528 4.49620894,96.0349607 L4.49620894,96.0387518 Z" id="Shape" fill="#F37901" fill-rule="nonzero"></path><polygon id="Path" fill="#F37901" points="48.6850029 100 9 100 9 98.9816356 48.3791818 98.9816356 87.4374403 74 88 74.8542324"></polygon></g><g id="chart" transform="translate(360.000000, 22.000000)"><rect id="Rectangle" fill="#F37901" opacity="0.18" x="0" y="0" width="113" height="83" rx="14.29"></rect><polygon id="Path" fill="#FFFFFF" points="5 35.2501115 23.0027816 18.380602 47.8409828 48.5156633 69.5711637 29.3792085 78.5762633 37.1697324 98.7524339 10 109 22.4401895 109 77 5 77"></polygon><polygon id="Path" fill="#F37901" points="48.2381357 50 23.3676611 19.2861787 5.75432636 36.0807171 5 35.2543192 23.4679902 17.6409994 48.3644761 48.3814787 70.0690094 28.9287572 79.0057331 36.800483 99.2870793 9 110 22.2414081 109.14906 22.9649824 99.33167 10.827977 79.184096 38.4494706 70.0764412 30.4292216"></polygon><circle id="Oval" fill="#F37901" cx="23" cy="18" r="2"></circle><circle id="Oval" fill="#F37901" cx="6" cy="34" r="2"></circle><circle id="Oval" fill="#F37901" cx="49" cy="48" r="2"></circle><circle id="Oval" fill="#F37901" cx="70" cy="29" r="2"></circle><circle id="Oval" fill="#F37901" cx="79" cy="37" r="2"></circle><circle id="Oval" fill="#F37901" cx="99" cy="9" r="2"></circle><circle id="Oval" fill="#F37901" cx="110" cy="22" r="2"></circle></g><path d="M253.279795,126 C251.98675,126.242818 251.252998,127.249062 251.009269,127.593554 C244.927594,135.799643 253.653085,140.998989 262.14511,152.64 C255.668338,149.086168 249.421183,144.246052 245.93073,139.417677 C243.68586,135.934542 241.92075,132.266296 249.50713,127.528103 C250.099776,127.150886 250.919474,126.672245 251.886693,126.326005 C252.265114,126.207095 252.593506,126.058706 253.279795,126" id="Fill-140" fill="#CE6600"></path><path d="M317.279795,135 C315.98675,135.142555 315.252998,135.733308 315.009269,135.935555 C308.927594,140.753244 317.653085,143.805713 326.14511,150.64 C319.668338,148.553591 313.421183,145.712021 309.93073,142.877345 C307.68586,140.832441 305.92075,138.678861 313.50713,135.897129 C314.099776,135.67567 314.919474,135.394667 315.886693,135.191393 C316.265114,135.121583 316.593506,135.034465 317.279795,135" id="Fill-140-Copy" fill="#CE6600" transform="translate(317.072555, 142.820000) scale(-1, 1) translate(-317.072555, -142.820000) "></path></g></g></svg>